<?xml version="1.0" encoding="UTF-8"?>
<!DOCTYPE svg PUBLIC "-//W3C//DTD SVG 1.1//EN" "http://www.w3.org/Graphics/SVG/1.1/DTD/svg11.dtd">
<!-- Creator: CorelDRAW 2017 -->
<svg xmlns="http://www.w3.org/2000/svg" xml:space="preserve" width="15mm" height="14.9712mm" version="1.1" style="shape-rendering:geometricPrecision; text-rendering:geometricPrecision; image-rendering:optimizeQuality; fill-rule:evenodd; clip-rule:evenodd"
viewBox="0 0 2471 2467">
 <defs>
  <style type="text/css">
   <![CDATA[
    .fil0 {fill:#FEFEFE}
    .fil2 {fill:#2B2A29}
    .fil4 {fill:#FCFCFC}
    .fil3 {fill:#FDFDFD}
    .fil1 {fill:#FEFEFE}
   ]]>
  </style>
 </defs>
 <g id="Слой_x0020_1">
  <metadata id="CorelCorpID_0Corel-Layer"/>
  <g id="_1500738910032">
   <circle class="fil0" cx="1044" cy="1044" r="1044"/>
   <path class="fil1" d="M614 1152c16,3 27,15 50,13 61,-7 47,-88 47,-139 0,-41 0,-83 0,-125 0,-23 -9,-25 71,-22 11,0 11,3 11,14 0,71 5,176 -4,238 -14,92 -99,118 -174,93l0 -72zm370 -275c36,-13 103,2 139,31 77,63 77,190 28,257 -23,32 -60,60 -109,66 -115,14 -185,-52 -199,-148 -10,-71 19,-144 77,-183 28,-19 48,-17 64,-23zm257 3c62,-2 169,-8 213,20 20,13 42,41 31,81 -12,45 -51,48 -56,60 23,10 56,15 69,60 12,42 -10,79 -30,96 -25,22 -60,29 -101,29 -42,0 -86,2 -128,0l1 -346zm-216 -402c69,-13 193,16 259,44 59,25 141,77 180,121 14,16 15,41 -6,52 -26,13 -41,-8 -52,-18 -176,-170 -468,-184 -666,-29 -14,11 -31,25 -41,36 -40,41 -87,-8 -44,-47 95,-85 204,-144 334,-156 9,-1 27,0 35,-2zm-615 547l0 58c0,157 88,330 194,433 219,213 565,246 817,73 210,-144 327,-408 270,-668 -55,-250 -226,-424 -471,-494 -134,-39 -293,-21 -413,29 -108,45 -205,122 -270,211 -69,94 -127,233 -127,358z"/>
   <path class="fil2" d="M1761 1925c-5,-25 13,-39 25,-51 21,-21 107,-111 120,-115 35,-12 61,27 94,60 27,27 51,51 78,78l274 274c39,39 50,51 7,94 -14,14 -26,26 -40,40 -11,11 -66,70 -81,75 -27,9 -42,-9 -52,-20l-352 -352c-16,-16 -71,-65 -75,-83zm-110 -188c8,-14 34,-31 47,-44 10,-10 34,-42 44,-47 10,5 67,62 75,75 -4,13 -84,90 -91,92 -4,-2 -69,-64 -75,-76zm-642 -1502c122,-11 257,18 351,55 183,73 339,212 429,391 158,313 97,685 -125,924 -144,155 -298,229 -506,263 -14,2 -33,1 -48,3 -59,8 -137,-2 -191,-11 -150,-24 -312,-103 -413,-201 -36,-35 -65,-64 -99,-107 -246,-320 -215,-769 45,-1052 66,-72 143,-133 232,-178 116,-58 194,-76 324,-88zm-854 777c0,77 0,141 15,212 59,283 230,518 494,644 104,50 234,89 369,89 11,0 17,2 26,2 171,-2 331,-49 472,-135 20,-12 33,-23 49,-32 15,5 79,79 98,94 4,89 -6,80 61,148l388 388c25,25 50,46 101,46 64,0 97,-49 137,-89 19,-19 35,-35 56,-56 19,-19 37,-34 45,-69 19,-81 -33,-120 -66,-153l-340 -340c-42,-41 -72,-86 -139,-86 -42,0 -13,17 -70,-38 -17,-16 -45,-42 -56,-57l61 -103c60,-111 104,-269 104,-398 0,-92 -4,-157 -27,-250 -94,-380 -445,-678 -871,-678 -194,0 -359,52 -510,153 -55,36 -78,61 -123,100 -34,30 -75,81 -102,117 -94,122 -171,328 -172,491z"/>
   <path class="fil3" d="M328 1110c-13,-84 15,-237 47,-317 37,-94 74,-152 138,-227 79,-93 206,-176 335,-213 163,-47 313,-41 470,17 157,58 311,188 388,343 144,287 102,589 -102,828 -116,136 -302,227 -489,243 -223,19 -422,-74 -545,-184 -60,-54 -115,-122 -160,-205 -34,-63 -56,-130 -71,-204 -5,-25 -8,-55 -11,-80zm681 -875c-130,12 -208,30 -324,88 -89,44 -166,106 -232,178 -261,283 -291,733 -45,1052 34,44 63,72 99,107 101,98 262,177 413,201 54,9 132,18 191,11 15,-2 34,-1 48,-3 208,-34 362,-109 506,-263 222,-239 283,-611 125,-924 -90,-179 -246,-318 -429,-391 -95,-38 -229,-67 -351,-55z"/>
   <path class="fil2" d="M411 1025c0,-125 58,-263 127,-358 65,-89 162,-167 270,-211 120,-50 279,-68 413,-29 245,70 416,244 471,494 57,260 -60,524 -270,668 -253,174 -599,141 -817,-73 -106,-104 -194,-276 -194,-433l0 -58zm-83 85c4,25 6,55 11,80 15,74 36,141 71,204 45,84 100,151 160,205 123,110 322,203 545,184 187,-16 374,-107 489,-243 203,-239 245,-541 102,-828 -77,-154 -231,-285 -388,-343 -157,-58 -307,-63 -470,-17 -129,37 -256,120 -335,213 -64,75 -102,133 -138,227 -32,81 -60,233 -47,317z"/>
   <path class="fil1" d="M1761 1925c4,19 59,68 75,83l352 352c11,11 25,29 52,20 14,-5 70,-65 81,-75 14,-14 26,-26 40,-40 43,-43 32,-55 -7,-94l-274 -274c-27,-27 -52,-51 -78,-78 -33,-34 -60,-72 -94,-60 -13,4 -99,95 -120,115 -12,12 -30,26 -25,51z"/>
   <path class="fil2" d="M1321 1079c42,-4 97,-2 97,45 -1,46 -51,49 -97,45l1 -89zm-1 -139c38,-3 86,-3 84,41 -3,40 -46,41 -84,38l0 -79zm-80 287c42,2 87,0 128,0 40,0 76,-7 101,-29 20,-18 42,-54 30,-96 -13,-46 -46,-50 -69,-60 5,-12 44,-15 56,-60 11,-40 -11,-68 -31,-81 -44,-28 -151,-22 -213,-20l-1 346z"/>
   <path class="fil2" d="M989 945c40,-16 103,10 110,86 6,65 -10,120 -67,132 -59,12 -99,-34 -104,-87 -4,-41 4,-89 34,-114 4,-3 10,-7 14,-10 5,-3 5,-2 9,-4l4 -3zm-5 -68c-16,6 -36,4 -64,23 -57,39 -87,112 -77,183 14,97 84,162 199,148 49,-6 86,-34 109,-66 49,-67 49,-194 -28,-257 -36,-29 -103,-44 -139,-31z"/>
   <path class="fil2" d="M614 1152l0 72c75,25 160,-2 174,-93 9,-62 5,-167 4,-238 0,-11 0,-14 -11,-14 -80,-3 -71,-1 -71,22 1,41 0,83 0,125 0,51 14,132 -47,139 -23,3 -34,-10 -50,-13z"/>
   <path class="fil3" d="M985 948c-4,2 -4,2 -9,4 -4,2 -10,6 -14,10 -29,25 -38,73 -34,114 5,53 45,99 104,87 57,-12 73,-67 67,-132 -7,-75 -70,-101 -110,-86l-4 3z"/>
   <path class="fil3" d="M1651 1737c6,12 71,74 75,76 7,-3 87,-80 91,-92 -8,-13 -65,-70 -75,-75 -10,5 -34,36 -44,47 -13,13 -38,30 -47,44z"/>
   <path class="fil4" d="M1321 1168c46,4 97,1 97,-45 1,-47 -55,-49 -97,-45l-1 89z"/>
   <path class="fil4" d="M1321 1018c38,3 81,2 84,-38 3,-44 -45,-44 -84,-41l0 79z"/>
  </g>
 </g>
</svg>
